<svg xmlns="http://www.w3.org/2000/svg" style="display: none;">
    <!-- Facebook -->
    <symbol id="facebook" viewBox="8 44 24 24">
        <path d="M32 56C32 49.3726 26.6274 44 20 44C13.3726 44 8 49.3726 8 56C8 61.9895 12.3882 66.954 18.125 67.8542V59.4688H15.0781V56H18.125V53.3563C18.125 50.3488 19.9166 48.6875 22.6576 48.6875C23.9705 48.6875 25.3438 48.9219 25.3438 48.9219V51.875H23.8306C22.3399 51.875 21.875 52.8 21.875 53.7491V56H25.2031L24.6711 59.4688H21.875V67.8542C27.6118 66.954 32 61.9896 32 56Z" />
        <path d="M24.6711 59.4688L25.2031 56H21.875V53.7491C21.875 52.7999 22.3399 51.875 23.8306 51.875H25.3438V48.9219C25.3438 48.9219 23.9705 48.6875 22.6575 48.6875C19.9166 48.6875 18.125 50.3488 18.125 53.3563V56H15.0781V59.4688H18.125V67.8542C18.7453 67.9514 19.3722 68.0001 20 68C20.6278 68.0001 21.2547 67.9514 21.875 67.8542V59.4688H24.6711Z" />
    </symbol>

    <!-- Instagram -->
    <symbol id="instagram" viewBox="48 44 24 24">
        <path d="M66.375 44H53.625C50.5184 44 48 46.5184 48 49.625V62.375C48 65.4816 50.5184 68 53.625 68H66.375C69.4816 68 72 65.4816 72 62.375V49.625C72 46.5184 69.4816 44 66.375 44Z" />
        <path d="M60.0008 46.625C57.4548 46.625 57.1352 46.6362 56.1353 46.6816C55.1372 46.7274 54.4559 46.8853 53.8598 47.1172C53.2432 47.3566 52.7201 47.677 52.1991 48.1982C51.6775 48.7194 51.3572 49.2424 51.117 49.8588C50.8845 50.4551 50.7263 51.1366 50.6814 52.1342C50.6367 53.1342 50.625 53.4539 50.625 56.0001C50.625 58.5463 50.6363 58.8648 50.6816 59.8647C50.7276 60.8628 50.8855 61.5441 51.1172 62.1402C51.3568 62.7568 51.6772 63.2799 52.1984 63.8009C52.7194 64.3225 53.2424 64.6436 53.8586 64.883C54.4552 65.1148 55.1365 65.2728 56.1344 65.3186C57.1344 65.364 57.4538 65.3752 59.9997 65.3752C62.5461 65.3752 62.8646 65.364 63.8646 65.3186C64.8626 65.2728 65.5447 65.1148 66.1412 64.883C66.7576 64.6436 67.2799 64.3225 67.8007 63.8009C68.3223 63.2799 68.6425 62.7568 68.8828 62.1404C69.1132 61.5441 69.2715 60.8626 69.3184 59.8649C69.3633 58.865 69.375 58.5463 69.375 56.0001C69.375 53.4539 69.3633 53.1344 69.3184 52.1344C69.2715 51.1363 69.1132 50.4552 68.8828 49.8591C68.6425 49.2424 68.3223 48.7194 67.8007 48.1982C67.2793 47.6768 66.7578 47.3564 66.1406 47.1173C65.543 46.8853 64.8613 46.7273 63.8632 46.6816C62.8632 46.6362 62.5448 46.625 59.9979 46.625H60.0008Z" />
    </symbol>

    <!-- Telegram -->
    <symbol id="telegram" viewBox="128 44 24 24">
        <path d="M140 44C136.818 44 133.764 45.2651 131.516 47.5147C129.265 49.7652 128.001 52.8173 128 56C128 59.1813 129.266 62.2357 131.516 64.4853C133.764 66.7349 136.818 68 140 68C143.182 68 146.236 66.7349 148.484 64.4853C150.734 62.2357 152 59.1813 152 56C152 52.8187 150.734 49.7643 148.484 47.5147C146.236 45.2651 143.182 44 140 44Z" />
        <path d="M133.432 55.8733C136.931 54.3493 139.263 53.3445 140.429 52.859C143.763 51.4729 144.455 51.2321 144.907 51.2239C145.006 51.2224 145.227 51.2469 145.372 51.3636C145.492 51.4621 145.526 51.5952 145.542 51.6887C145.557 51.782 145.578 51.9949 145.561 52.161C145.381 54.0585 144.599 58.6631 144.202 60.7884C144.035 61.6877 143.703 61.9892 143.382 62.0186C142.685 62.0827 142.156 61.5581 141.481 61.1158C140.426 60.4234 139.829 59.9925 138.804 59.3169C137.619 58.5362 138.387 58.107 139.062 57.4057C139.239 57.2222 142.31 54.4294 142.368 54.176C142.376 54.1444 142.383 54.0262 142.312 53.964C142.242 53.9015 142.139 53.9229 142.064 53.9398C141.957 53.9638 140.272 55.079 137.002 57.2854C136.524 57.6142 136.091 57.7745 135.701 57.7661C135.273 57.7569 134.448 57.5239 133.835 57.3247C133.085 57.0804 132.487 56.9512 132.539 56.5363C132.566 56.3203 132.864 56.0992 133.432 55.8733Z" />
    </symbol>

    <!-- WhatsApp -->
    <symbol id="whatsapp" viewBox="88 44 24 24">
        <path d="M93.3591 56.6366L94.8437 49.956L95.586 48.4714L100.782 49.956L104.493 53.6675L109.69 58.1212V61.0904L105.236 64.0595L100.04 62.5749L93.3591 56.6366Z" />
        <path d="M88.9359 67.0689L89.2803 65.803L90.5515 61.132C89.6953 59.5587 89.247 57.7939 89.25 55.9993M88.9359 67.0689L100 66.75M88.9359 67.0689L90.2014 66.7235L94.8704 65.4496M88.9359 67.0689L94.8704 65.4496M89.25 55.9993C89.25 55.9991 89.25 55.9989 89.25 55.9987L90 56H89.25C89.25 55.9998 89.25 55.9996 89.25 55.9993ZM89.25 55.9993C89.2504 50.0624 94.063 45.25 100 45.25C105.937 45.25 110.75 50.0628 110.75 56C110.75 61.9372 105.937 66.75 100 66.75M100 66.75C98.2065 66.7529 96.4429 66.3049 94.8704 65.4496M100 66.75C100 66.75 100.001 66.75 100.001 66.75L94.8704 65.4496" />
    </symbol>
</svg>
